<svg width="29" height="29" viewBox="0 0 29 29" fill="none" xmlns="http://www.w3.org/2000/svg">
<path d="M2.39764 7.55526L0.304462 6.60131C0.101487 6.49956 0 6.33421 0 6.10526C0 5.87631 0.101487 5.71096 0.304462 5.60921L2.39764 4.65526L3.34908 2.55658C3.45057 2.35307 3.61549 2.25132 3.84383 2.25132C4.07218 2.25132 4.2371 2.35307 4.33858 2.55658L5.29003 4.65526L7.3832 5.60921C7.58618 5.71096 7.68766 5.87631 7.68766 6.10526C7.68766 6.33421 7.58618 6.49956 7.3832 6.60131L5.29003 7.55526L4.33858 9.65394C4.2371 9.85745 4.07218 9.95921 3.84383 9.95921C3.61549 9.95921 3.45057 9.85745 3.34908 9.65394L2.39764 7.55526ZM22.6824 4.00658L21.6168 3.51053C21.4138 3.40877 21.3123 3.25614 21.3123 3.05263C21.3123 2.84912 21.4138 2.69649 21.6168 2.59474L22.6824 2.09868L23.1772 1.03026C23.2787 0.826754 23.4309 0.725 23.6339 0.725C23.8368 0.725 23.9891 0.826754 24.0906 1.03026L24.5853 2.09868L25.6509 2.59474C25.8539 2.69649 25.9554 2.84912 25.9554 3.05263C25.9554 3.25614 25.8539 3.40877 25.6509 3.51053L24.5853 4.00658L24.0906 5.075C23.9891 5.27851 23.8368 5.38026 23.6339 5.38026C23.4309 5.38026 23.2787 5.27851 23.1772 5.075L22.6824 4.00658ZM25.727 10.1118L24.6614 9.61579C24.4584 9.51403 24.357 9.3614 24.357 9.15789C24.357 8.95438 24.4584 8.80175 24.6614 8.7L25.727 8.20395L26.2218 7.13553C26.3233 6.93202 26.4755 6.83026 26.6785 6.83026C26.8815 6.83026 27.0337 6.93202 27.1352 7.13553L27.6299 8.20395L28.6955 8.7C28.8985 8.80175 29 8.95438 29 9.15789C29 9.3614 28.8985 9.51403 28.6955 9.61579L27.6299 10.1118L27.1352 11.1803C27.0337 11.3838 26.8815 11.4855 26.6785 11.4855C26.4755 11.4855 26.3233 11.3838 26.2218 11.1803L25.727 10.1118ZM14.5 18.3158C13.2314 18.3158 12.1531 17.8706 11.2651 16.9803C10.3771 16.0899 9.93307 15.0088 9.93307 13.7368V4.57895C9.93307 3.30702 10.3771 2.22588 11.2651 1.33553C12.1531 0.445175 13.2314 0 14.5 0C15.7686 0 16.8469 0.445175 17.7349 1.33553C18.6229 2.22588 19.0669 3.30702 19.0669 4.57895V13.7368C19.0669 15.0088 18.6229 16.0899 17.7349 16.9803C16.8469 17.8706 15.7686 18.3158 14.5 18.3158ZM14.5 29C14.0687 29 13.7069 28.8535 13.4146 28.5604C13.1223 28.2674 12.9767 27.9051 12.9777 27.4737V24.2684C10.6181 23.9632 8.61374 22.9838 6.96457 21.3303C5.3154 19.6768 4.31321 17.6925 3.95801 15.3776C3.88189 14.9452 3.99606 14.5636 4.30053 14.2329C4.60499 13.9022 5.01094 13.7368 5.51837 13.7368C5.87358 13.7368 6.19073 13.8701 6.46982 14.1367C6.74891 14.4033 6.92651 14.7279 7.00262 15.1105C7.33246 16.8912 8.1951 18.3794 9.59055 19.575C10.986 20.7706 12.6225 21.3684 14.5 21.3684C16.3775 21.3684 18.014 20.7706 19.4095 19.575C20.8049 18.3794 21.6675 16.8912 21.9974 15.1105C22.0735 14.7289 22.2572 14.4043 22.5485 14.1367C22.8397 13.8691 23.1635 13.7358 23.5197 13.7368C24.0017 13.7368 24.395 13.9022 24.6995 14.2329C25.0039 14.5636 25.1181 14.9452 25.042 15.3776C24.6868 17.6925 23.6846 19.6768 22.0354 21.3303C20.3863 22.9838 18.3819 23.9632 16.0223 24.2684V27.4737C16.0223 27.9061 15.8762 28.2689 15.5839 28.5619C15.2916 28.855 14.9303 29.001 14.5 29Z" fill="white"/>
</svg>
